<?xml version="1.0" encoding="UTF-8" standalone="no"?>
<svg
   xmlns:dc="http://purl.org/dc/elements/1.1/"
   xmlns:cc="http://creativecommons.org/ns#"
   xmlns:rdf="http://www.w3.org/1999/02/22-rdf-syntax-ns#"
   xmlns:svg="http://www.w3.org/2000/svg"
   xmlns="http://www.w3.org/2000/svg"
   viewBox="0 0 540 118.75"
   height="118.75"
   width="540"
   xml:space="preserve"
   version="1.1"
   id="svg2"><metadata
     id="metadata8"><rdf:RDF><cc:Work
         rdf:about=""><dc:format>image/svg+xml</dc:format><dc:type
           rdf:resource="http://purl.org/dc/dcmitype/StillImage" /></cc:Work></rdf:RDF></metadata><defs
     id="defs6"><clipPath
       id="clipPath16"
       clipPathUnits="userSpaceOnUse"><path
         id="path18"
         d="M 0,0 612,0 612,792 0,792 0,0 Z" /></clipPath><clipPath
       id="clipPath20"
       clipPathUnits="userSpaceOnUse"><path
         style="clip-rule:evenodd"
         id="path22"
         d="M 0,0 612,0 612,792 0,792 0,0 Z" /></clipPath><clipPath
       id="clipPath24"
       clipPathUnits="userSpaceOnUse"><path
         style="clip-rule:evenodd"
         id="path26"
         d="m 56.7,639.8 429.6,0 0,93.7 -429.6,0 0,-93.7 z" /></clipPath><clipPath
       id="clipPath28"
       clipPathUnits="userSpaceOnUse"><path
         id="path30"
         d="m -79,395 771,0 0,0.1 -771,0 0,-0.1 z" /></clipPath></defs><g
     transform="matrix(1.25,0,0,-1.25,0,118.75)"
     id="g10"><g
       transform="translate(-56,-639)"
       id="g12"><g
         id="g14" /><g
         id="g32"><g
           id="g34"
           clip-path="url(#clipPath16)"><g
             id="g36"><g
               id="g38"
               clip-path="url(#clipPath20)"><path
                 id="path40"
                 style="fill:#000000;fill-opacity:1;fill-rule:evenodd;stroke:none"
                 d="m 165.5,654.6 -73.9,0 73.9,0 z" /><g
                 id="g42"><path
                   id="path44"
                   style="fill:none;stroke:#b3b3b3;stroke-width:5.0272398;stroke-linecap:butt;stroke-linejoin:round;stroke-miterlimit:10;stroke-dasharray:none;stroke-opacity:1"
                   d="m 165.5,654.6 -73.9,0" /></g><g
                 id="g46"><path
                   id="path48"
                   style="fill:none;stroke:#b3b3b3;stroke-width:5.0272398;stroke-linecap:butt;stroke-linejoin:round;stroke-miterlimit:10;stroke-dasharray:none;stroke-opacity:1"
                   d="m 162.7,654.4 0,0 c 83.7,6.6 51.1,68.3 138,68.3" /></g><g
                 id="g50"><path
                   id="path52"
                   style="fill:none;stroke:#b3b3b3;stroke-width:2.49855995;stroke-linecap:butt;stroke-linejoin:round;stroke-miterlimit:10;stroke-dasharray:none;stroke-opacity:1"
                   d="M 154.6,731.7 142,719.5" /></g><g
                 id="g54"><path
                   id="path56"
                   style="fill:none;stroke:#b3b3b3;stroke-width:2.49855995;stroke-linecap:butt;stroke-linejoin:round;stroke-miterlimit:10;stroke-dasharray:none;stroke-opacity:1"
                   d="m 170.2,704 0,0 c 0,0 -18.4,-4.8 -13.1,-9.8" /></g><g
                 id="g58"><path
                   id="path60"
                   style="fill:none;stroke:#b3b3b3;stroke-width:2.49855995;stroke-linecap:butt;stroke-linejoin:round;stroke-miterlimit:10;stroke-dasharray:none;stroke-opacity:1"
                   d="m 182.5,696.8 0,0 c 0,0 -20.1,-4.8 -20.1,-11.8" /></g><g
                 id="g62"><path
                   id="path64"
                   style="fill:none;stroke:#b3b3b3;stroke-width:2.49855995;stroke-linecap:butt;stroke-linejoin:round;stroke-miterlimit:10;stroke-dasharray:none;stroke-opacity:1"
                   d="m 165.2,677.4 0,0 c 11,2.6 11,2.6 11,2.6 0,0 19.5,3.2 29.2,4.8 16.6,2.6 10.3,13.3 10.3,13.3 0,0 -5,14.8 -6.3,16.2" /></g><g
                 id="g66"><path
                   id="path68"
                   style="fill:none;stroke:#b3b3b3;stroke-width:2.49855995;stroke-linecap:butt;stroke-linejoin:round;stroke-miterlimit:10;stroke-dasharray:none;stroke-opacity:1"
                   d="m 159.3,656.2 0,0 c 17.5,29 -12.9,48.1 -16.3,52.3 -8.5,10.4 1.2,9.8 -1,11 3.2,11 3.2,11 3.2,11" /></g><path
                 id="path70"
                 style="fill:#ff0000;fill-opacity:1;fill-rule:evenodd;stroke:none"
                 d="m 146.7,731.7 0,0 c 0,-0.6 -0.6,-1.2 -1.5,-1.2 -0.7,0 -1.3,0.6 -1.3,1.2 0,0.8 0.6,1.4 1.3,1.4 0.9,0 1.5,-0.6 1.5,-1.4 z" /><path
                 id="path72"
                 style="fill:none;stroke:#ff0000;stroke-width:0.1;stroke-linecap:butt;stroke-linejoin:miter;stroke-miterlimit:10;stroke-dasharray:none;stroke-opacity:1"
                 d="m 146.7,731.7 0,0 c 0,-0.6 -0.6,-1.2 -1.5,-1.2 -0.7,0 -1.3,0.6 -1.3,1.2 0,0.8 0.6,1.4 1.3,1.4 0.9,0 1.5,-0.6 1.5,-1.4 z" /><path
                 id="path74"
                 style="fill:#ff0000;fill-opacity:1;fill-rule:evenodd;stroke:none"
                 d="m 154.6,731.7 0,0 c 0,-0.6 -0.7,-1.2 -1.3,-1.2 -0.9,0 -1.5,0.6 -1.5,1.2 0,0.8 0.6,1.4 1.5,1.4 0.6,0 1.3,-0.6 1.3,-1.4 z" /><path
                 id="path76"
                 style="fill:none;stroke:#ff0000;stroke-width:0.1;stroke-linecap:butt;stroke-linejoin:miter;stroke-miterlimit:10;stroke-dasharray:none;stroke-opacity:1"
                 d="m 154.6,731.7 0,0 c 0,-0.6 -0.7,-1.2 -1.3,-1.2 -0.9,0 -1.5,0.6 -1.5,1.2 0,0.8 0.6,1.4 1.5,1.4 0.6,0 1.3,-0.6 1.3,-1.4 z" /><path
                 id="path78"
                 style="fill:#ff0000;fill-opacity:1;fill-rule:evenodd;stroke:none"
                 d="m 143,718.9 0,0 c 0,-0.5 -0.7,-0.8 -1,-0.8 -0.6,0 -0.9,0.3 -0.9,0.8 0,0.4 0.3,0.6 0.9,0.6 0.3,0 1,-0.2 1,-0.6 z" /><path
                 id="path80"
                 style="fill:none;stroke:#ff0000;stroke-width:0.1;stroke-linecap:butt;stroke-linejoin:miter;stroke-miterlimit:10;stroke-dasharray:none;stroke-opacity:1"
                 d="m 143,718.9 0,0 c 0,-0.5 -0.7,-0.8 -1,-0.8 -0.6,0 -0.9,0.3 -0.9,0.8 0,0.4 0.3,0.6 0.9,0.6 0.3,0 1,-0.2 1,-0.6 z" /><path
                 id="path82"
                 style="fill:#ff0000;fill-opacity:1;fill-rule:evenodd;stroke:none"
                 d="m 137.3,717.7 0,0 c 0,-0.4 -0.3,-0.8 -0.9,-0.8 -0.3,0 -0.7,0.4 -0.7,0.8 0,0.4 0.4,0.7 0.7,0.7 0.6,0 0.9,-0.3 0.9,-0.7 z" /><path
                 id="path84"
                 style="fill:none;stroke:#ff0000;stroke-width:0.1;stroke-linecap:butt;stroke-linejoin:miter;stroke-miterlimit:10;stroke-dasharray:none;stroke-opacity:1"
                 d="m 137.3,717.7 0,0 c 0,-0.4 -0.3,-0.8 -0.9,-0.8 -0.3,0 -0.7,0.4 -0.7,0.8 0,0.4 0.4,0.7 0.7,0.7 0.6,0 0.9,-0.3 0.9,-0.7 z" /><path
                 id="path86"
                 style="fill:#ff0000;fill-opacity:1;fill-rule:evenodd;stroke:none"
                 d="m 144.5,705.7 0,0 c 0,-0.4 -0.3,-0.8 -0.6,-0.8 -0.6,0 -0.9,0.4 -0.9,0.8 0,0.4 0.3,0.7 0.9,0.7 0.3,0 0.6,-0.3 0.6,-0.7 z" /><path
                 id="path88"
                 style="fill:none;stroke:#ff0000;stroke-width:0.1;stroke-linecap:butt;stroke-linejoin:miter;stroke-miterlimit:10;stroke-dasharray:none;stroke-opacity:1"
                 d="m 144.5,705.7 0,0 c 0,-0.4 -0.3,-0.8 -0.6,-0.8 -0.6,0 -0.9,0.4 -0.9,0.8 0,0.4 0.3,0.7 0.9,0.7 0.3,0 0.6,-0.3 0.6,-0.7 z" /><path
                 id="path90"
                 style="fill:#ff0000;fill-opacity:1;fill-rule:evenodd;stroke:none"
                 d="m 153.3,699.9 0,0 c 0,-0.7 -0.6,-1 -1.2,-1 -0.7,0 -1,0.3 -1,1 0,0.6 0.3,1 1,1 0.6,0 1.2,-0.4 1.2,-1 z" /><path
                 id="path92"
                 style="fill:none;stroke:#ff0000;stroke-width:0.1;stroke-linecap:butt;stroke-linejoin:miter;stroke-miterlimit:10;stroke-dasharray:none;stroke-opacity:1"
                 d="m 153.3,699.9 0,0 c 0,-0.7 -0.6,-1 -1.2,-1 -0.7,0 -1,0.3 -1,1 0,0.6 0.3,1 1,1 0.6,0 1.2,-0.4 1.2,-1 z" /><path
                 id="path94"
                 style="fill:#ff0000;fill-opacity:1;fill-rule:evenodd;stroke:none"
                 d="m 172.7,705.3 0,0 c 0,-0.6 -0.6,-1.3 -1.2,-1.3 -0.6,0 -1.3,0.7 -1.3,1.3 0,0.4 0.7,1 1.3,1 0.6,0 1.2,-0.6 1.2,-1 z" /><path
                 id="path96"
                 style="fill:none;stroke:#ff0000;stroke-width:0.1;stroke-linecap:butt;stroke-linejoin:miter;stroke-miterlimit:10;stroke-dasharray:none;stroke-opacity:1"
                 d="m 172.7,705.3 0,0 c 0,-0.6 -0.6,-1.3 -1.2,-1.3 -0.6,0 -1.3,0.7 -1.3,1.3 0,0.4 0.7,1 1.3,1 0.6,0 1.2,-0.6 1.2,-1 z" /><path
                 id="path98"
                 style="fill:#ff0000;fill-opacity:1;fill-rule:evenodd;stroke:none"
                 d="m 182.5,696.8 0,0 c 0,-0.6 -0.3,-1 -1,-1 -0.6,0 -1.2,0.4 -1.2,1 0,0.7 0.6,1.1 1.2,1.1 0.7,0 1,-0.4 1,-1.1 z" /><path
                 id="path100"
                 style="fill:none;stroke:#ff0000;stroke-width:0.1;stroke-linecap:butt;stroke-linejoin:miter;stroke-miterlimit:10;stroke-dasharray:none;stroke-opacity:1"
                 d="m 182.5,696.8 0,0 c 0,-0.6 -0.3,-1 -1,-1 -0.6,0 -1.2,0.4 -1.2,1 0,0.7 0.6,1.1 1.2,1.1 0.7,0 1,-0.4 1,-1.1 z" /><path
                 id="path102"
                 style="fill:#ff0000;fill-opacity:1;fill-rule:evenodd;stroke:none"
                 d="m 167.4,677.4 0,0 c 0,-0.4 -0.6,-1 -1.2,-1 -0.7,0 -1,0.6 -1,1 0,0.6 0.3,1 1,1 0.6,0 1.2,-0.4 1.2,-1 z" /><path
                 id="path104"
                 style="fill:none;stroke:#ff0000;stroke-width:0.1;stroke-linecap:butt;stroke-linejoin:miter;stroke-miterlimit:10;stroke-dasharray:none;stroke-opacity:1"
                 d="m 167.4,677.4 0,0 c 0,-0.4 -0.6,-1 -1.2,-1 -0.7,0 -1,0.6 -1,1 0,0.6 0.3,1 1,1 0.6,0 1.2,-0.4 1.2,-1 z" /><path
                 id="path106"
                 style="fill:#ff0000;fill-opacity:1;fill-rule:evenodd;stroke:none"
                 d="m 176.2,680 0,0 c 0,-0.3 -0.6,-1 -1.3,-1 -0.6,0 -0.9,0.7 -0.9,1 0,0.6 0.3,1.2 0.9,1.2 0.7,0 1.3,-0.6 1.3,-1.2 z" /><path
                 id="path108"
                 style="fill:none;stroke:#ff0000;stroke-width:0.1;stroke-linecap:butt;stroke-linejoin:miter;stroke-miterlimit:10;stroke-dasharray:none;stroke-opacity:1"
                 d="m 176.2,680 0,0 c 0,-0.3 -0.6,-1 -1.3,-1 -0.6,0 -0.9,0.7 -0.9,1 0,0.6 0.3,1.2 0.9,1.2 0.7,0 1.3,-0.6 1.3,-1.2 z" /><path
                 id="path110"
                 style="fill:#ff0000;fill-opacity:1;fill-rule:evenodd;stroke:none"
                 d="m 160.5,654.6 0,0 c 0,-0.8 -0.6,-1.2 -1.2,-1.2 -1,0 -1.6,0.4 -1.6,1.2 0,0.6 0.6,1.2 1.6,1.2 0.6,0 1.2,-0.6 1.2,-1.2 z" /><path
                 id="path112"
                 style="fill:none;stroke:#ff0000;stroke-width:0.1;stroke-linecap:butt;stroke-linejoin:miter;stroke-miterlimit:10;stroke-dasharray:none;stroke-opacity:1"
                 d="m 160.5,654.6 0,0 c 0,-0.8 -0.6,-1.2 -1.2,-1.2 -1,0 -1.6,0.4 -1.6,1.2 0,0.6 0.6,1.2 1.6,1.2 0.6,0 1.2,-0.6 1.2,-1.2 z" /><path
                 id="path114"
                 style="fill:#ff0000;fill-opacity:1;fill-rule:evenodd;stroke:none"
                 d="m 194.1,660.2 0,0 c 0,-0.6 -0.6,-1.2 -1.3,-1.2 -0.6,0 -1.2,0.6 -1.2,1.2 0,0.6 0.6,1.2 1.2,1.2 0.7,0 1.3,-0.6 1.3,-1.2 z" /><path
                 id="path116"
                 style="fill:none;stroke:#ff0000;stroke-width:0.1;stroke-linecap:butt;stroke-linejoin:miter;stroke-miterlimit:10;stroke-dasharray:none;stroke-opacity:1"
                 d="m 194.1,660.2 0,0 c 0,-0.6 -0.6,-1.2 -1.3,-1.2 -0.6,0 -1.2,0.6 -1.2,1.2 0,0.6 0.6,1.2 1.2,1.2 0.7,0 1.3,-0.6 1.3,-1.2 z" /><path
                 id="path118"
                 style="fill:#ff0000;fill-opacity:1;fill-rule:evenodd;stroke:none"
                 d="m 206.9,684.8 0,0 c 0,-0.6 -0.3,-0.8 -0.6,-0.8 -0.6,0 -0.9,0.2 -0.9,0.8 0,0.4 0.3,0.8 0.9,0.8 0.3,0 0.6,-0.4 0.6,-0.8 z" /><path
                 id="path120"
                 style="fill:none;stroke:#ff0000;stroke-width:0.1;stroke-linecap:butt;stroke-linejoin:miter;stroke-miterlimit:10;stroke-dasharray:none;stroke-opacity:1"
                 d="m 206.9,684.8 0,0 c 0,-0.6 -0.3,-0.8 -0.6,-0.8 -0.6,0 -0.9,0.2 -0.9,0.8 0,0.4 0.3,0.8 0.9,0.8 0.3,0 0.6,-0.4 0.6,-0.8 z" /><path
                 id="path122"
                 style="fill:#ff0000;fill-opacity:1;fill-rule:evenodd;stroke:none"
                 d="m 213.2,687.2 0,0 c 0,-0.3 -0.3,-0.7 -0.9,-0.7 -0.3,0 -1,0.4 -1,0.7 0,0.4 0.7,0.8 1,0.8 0.6,0 0.9,-0.4 0.9,-0.8 z" /><path
                 id="path124"
                 style="fill:none;stroke:#ff0000;stroke-width:0.1;stroke-linecap:butt;stroke-linejoin:miter;stroke-miterlimit:10;stroke-dasharray:none;stroke-opacity:1"
                 d="m 213.2,687.2 0,0 c 0,-0.3 -0.3,-0.7 -0.9,-0.7 -0.3,0 -1,0.4 -1,0.7 0,0.4 0.7,0.8 1,0.8 0.6,0 0.9,-0.4 0.9,-0.8 z" /><path
                 id="path126"
                 style="fill:#ff0000;fill-opacity:1;fill-rule:evenodd;stroke:none"
                 d="m 217.6,698.1 0,0 c 0,-0.5 -0.3,-0.9 -0.9,-0.9 -0.4,0 -1,0.4 -1,0.9 0,0.4 0.6,0.8 1,0.8 0.6,0 0.9,-0.4 0.9,-0.8 z" /><path
                 id="path128"
                 style="fill:none;stroke:#ff0000;stroke-width:0.1;stroke-linecap:butt;stroke-linejoin:miter;stroke-miterlimit:10;stroke-dasharray:none;stroke-opacity:1"
                 d="m 217.6,698.1 0,0 c 0,-0.5 -0.3,-0.9 -0.9,-0.9 -0.4,0 -1,0.4 -1,0.9 0,0.4 0.6,0.8 1,0.8 0.6,0 0.9,-0.4 0.9,-0.8 z" /><path
                 id="path130"
                 style="fill:#ff0000;fill-opacity:1;fill-rule:evenodd;stroke:none"
                 d="m 210.4,715 0,0 c 0,-0.3 -0.6,-0.7 -1,-0.7 -0.6,0 -0.9,0.4 -0.9,0.7 0,0.5 0.3,0.9 0.9,0.9 0.4,0 1,-0.4 1,-0.9 z" /><path
                 id="path132"
                 style="fill:none;stroke:#ff0000;stroke-width:0.1;stroke-linecap:butt;stroke-linejoin:miter;stroke-miterlimit:10;stroke-dasharray:none;stroke-opacity:1"
                 d="m 210.4,715 0,0 c 0,-0.3 -0.6,-0.7 -1,-0.7 -0.6,0 -0.9,0.4 -0.9,0.7 0,0.5 0.3,0.9 0.9,0.9 0.4,0 1,-0.4 1,-0.9 z" /><path
                 id="path134"
                 style="fill:#b3b3b3;fill-opacity:1;fill-rule:evenodd;stroke:none"
                 d="m 281.3,675 0,0 c -14.2,0 -22,6.2 -22.3,14.3 0,6.2 3.5,12.3 9.4,16.4 5,3.1 11.9,5 19.8,5.2 14.4,0 21.9,-6 22.2,-14.3 0,-6.2 -3.1,-12.4 -9.1,-16.4 -5,-3.2 -11.9,-5 -20,-5.2 z m 1.5,6.2 0,0 c 9.1,0.2 15.4,8.6 15.1,15 0,4.4 -2.5,8.5 -11,8.5 -9.7,0 -16,-8.5 -15.7,-15.1 0,-4.8 3.8,-8.4 11.3,-8.4 l 0.3,0 z" /><path
                 id="path136"
                 style="fill:#b3b3b3;fill-opacity:1;fill-rule:evenodd;stroke:none"
                 d="m 322.3,710.1 0,0 c 3.8,0.6 9.1,1 14.4,1 5.1,0.1 10.4,-0.2 14.5,-1.6 3.4,-1.4 5.9,-3.4 6.3,-6.6 0,-5.3 -5.1,-8.5 -12,-10.1 0,-0.1 0,-0.1 0,-0.1 3.2,-0.9 4.7,-3.1 5.4,-6.2 0.9,-3.9 1.5,-8.5 2.5,-9.9 -11.9,-0.2 -11.9,-0.2 -11.9,-0.2 -0.4,1 -1.3,4 -1.9,8.2 -0.7,4.3 -2.9,5.4 -7.6,5.2 -3.4,0 -3.4,0 -3.4,0 -3.4,-13.5 -3.4,-13.5 -3.4,-13.5 C 313.6,676 313.6,676 313.6,676 l 8.7,34.1 z m 7.9,-14.6 0,0 c 4.7,0 4.7,0 4.7,0 6.2,0.2 10.6,2.6 10.3,6 0,2.8 -3.7,3.9 -8.1,3.8 -2.2,0 -3.8,0 -4.7,-0.2 l -2.2,-9.6 z" /><path
                 id="path138"
                 style="fill:#b3b3b3;fill-opacity:1;fill-rule:evenodd;stroke:none"
                 d="m 380,711.9 -8.4,-34.9 -11.3,-0.2 8.1,34.9 11.6,0.2 z" /><path
                 id="path140"
                 style="fill:#b3b3b3;fill-opacity:1;fill-rule:evenodd;stroke:none"
                 d="m 406.7,677.4 0,0 c -14.1,-0.4 -22.6,5.7 -23.2,13.9 -0.3,6.2 2.8,12.4 8.8,16.4 4.7,3.4 11.6,5.4 19.4,5.6 14.1,0.6 22.3,-5.5 22.9,-13.7 0.3,-6.2 -2.5,-12.4 -8.1,-16.4 -5.1,-3.4 -11.7,-5.4 -19.8,-5.8 z m 0.9,6.2 0,0 c 9.4,0.4 15.1,9.1 14.8,15.5 -0.7,4.3 -3.2,8.4 -11.6,8.2 -9.8,-0.5 -15.4,-8.8 -15.1,-15.5 0.3,-4.8 4.1,-8.3 11.9,-8.2 z" /><path
                 id="path142"
                 style="fill:#b3b3b3;fill-opacity:1;fill-rule:evenodd;stroke:none"
                 d="m 439,679 0,0 c 5.6,35.1 5.6,35.1 5.6,35.1 13.5,0.6 13.5,0.6 13.5,0.6 8.8,-12.7 8.8,-12.7 8.8,-12.7 2.8,-4.4 4.7,-7.8 6.6,-11.6 0.3,0 0.3,0 0.3,0 -0.3,3.7 0,7.5 0.6,12.6 2.2,12.7 2.2,12.7 2.2,12.7 10.7,0.6 10.7,0.6 10.7,0.6 -5.7,-35.1 -5.7,-35.1 -5.7,-35.1 -11.9,-0.6 -11.9,-0.6 -11.9,-0.6 -9.4,13.5 -9.4,13.5 -9.4,13.5 -2.8,4.5 -4.7,7.5 -6.6,11.7 -0.3,-0.1 -0.3,-0.1 -0.3,-0.1 -0.3,-3.4 -0.9,-8.2 -1.9,-13.9 -1.9,-12.1 -1.9,-12.1 -1.9,-12.1 L 439,679 Z" /><g
                 id="g144"><path
                   id="path146"
                   style="fill:none;stroke:#b3b3b3;stroke-width:5.0272398;stroke-linecap:butt;stroke-linejoin:round;stroke-miterlimit:10;stroke-dasharray:none;stroke-opacity:1"
                   d="m 362.8,722.7 -60.2,0" /></g><path
                 id="path148"
                 style="fill:#ff0000;fill-opacity:1;fill-rule:evenodd;stroke:none"
                 d="m 384.4,722.5 0,0 c 0,-2.6 -3.7,-4.8 -8.1,-4.8 -4.7,0 -8.2,2.2 -8.2,4.8 0,2.8 3.5,5 8.2,5 4.4,0 8.1,-2.2 8.1,-5 z" /><path
                 id="path150"
                 style="fill:#b3b3b3;fill-opacity:1;fill-rule:evenodd;stroke:none"
                 d="m 97.2,654.6 -37.6,13.6 0,-25.6 37.6,12 z" /><path
                 id="path152"
                 style="fill:none;stroke:#b3b3b3;stroke-width:0.1;stroke-linecap:butt;stroke-linejoin:miter;stroke-miterlimit:10;stroke-dasharray:none;stroke-opacity:1"
                 d="m 97.2,654.6 -37.6,13.6 0,-25.6 37.6,12 z" /><g
                 id="g154"><path
                   id="path156"
                   style="fill:none;stroke:#b3b3b3;stroke-width:5.0272398;stroke-linecap:butt;stroke-linejoin:round;stroke-miterlimit:10;stroke-dasharray:none;stroke-opacity:1"
                   d="m 97.2,654.6 -37.6,13.6 0,-25.6 37.6,12 z" /></g></g></g><g
             id="g158"><g
               id="g160"
               clip-path="url(#clipPath24)"><g
                 id="g162"><path
                   id="path164"
                   style="fill:none;stroke:#4d4d4d;stroke-width:2.48702002;stroke-linecap:butt;stroke-linejoin:round;stroke-miterlimit:10;stroke-dasharray:none;stroke-opacity:1"
                   d="M 154.1,730 141.6,717.9" /></g><g
                 id="g166"><path
                   id="path168"
                   style="fill:none;stroke:#4d4d4d;stroke-width:2.48702002;stroke-linecap:butt;stroke-linejoin:round;stroke-miterlimit:10;stroke-dasharray:none;stroke-opacity:1"
                   d="m 169.7,702.5 0,0 c 0,0 -18.4,-4.8 -13.1,-9.7" /></g><g
                 id="g170"><path
                   id="path172"
                   style="fill:none;stroke:#4d4d4d;stroke-width:2.48702002;stroke-linecap:butt;stroke-linejoin:round;stroke-miterlimit:10;stroke-dasharray:none;stroke-opacity:1"
                   d="m 181.9,695.3 0,0 c 0,0 -20,-4.7 -20,-11.7" /></g><g
                 id="g174"><path
                   id="path176"
                   style="fill:none;stroke:#4d4d4d;stroke-width:2.48702002;stroke-linecap:butt;stroke-linejoin:round;stroke-miterlimit:10;stroke-dasharray:none;stroke-opacity:1"
                   d="m 164.7,676 0,0 c 11,2.6 11,2.6 11,2.6 0,0 19.3,3.2 29,4.8 16.5,2.6 10.3,13.1 10.3,13.1 0,0 -5,14.8 -6.3,16.2" /></g><g
                 id="g178"><path
                   id="path180"
                   style="fill:none;stroke:#4d4d4d;stroke-width:2.48702002;stroke-linecap:butt;stroke-linejoin:round;stroke-miterlimit:10;stroke-dasharray:none;stroke-opacity:1"
                   d="m 158.8,655 0,0 c 17.5,28.8 -12.8,47.7 -16.2,51.9 -8.4,10.3 1.2,9.7 -1,11 3.2,10.9 3.2,10.9 3.2,10.9" /></g><path
                 id="path182"
                 style="fill:#ff0000;fill-opacity:1;fill-rule:evenodd;stroke:none"
                 d="m 146.3,730 0,0 c 0,-0.6 -0.6,-1.2 -1.5,-1.2 -0.7,0 -1.3,0.6 -1.3,1.2 0,0.8 0.6,1.4 1.3,1.4 0.9,0 1.5,-0.6 1.5,-1.4 z" /><path
                 id="path184"
                 style="fill:none;stroke:#ff0000;stroke-width:0.1;stroke-linecap:butt;stroke-linejoin:miter;stroke-miterlimit:10;stroke-dasharray:none;stroke-opacity:1"
                 d="m 146.3,730 0,0 c 0,-0.6 -0.6,-1.2 -1.5,-1.2 -0.7,0 -1.3,0.6 -1.3,1.2 0,0.8 0.6,1.4 1.3,1.4 0.9,0 1.5,-0.6 1.5,-1.4 z" /><path
                 id="path186"
                 style="fill:#ff0000;fill-opacity:1;fill-rule:evenodd;stroke:none"
                 d="m 154.1,730 0,0 c 0,-0.6 -0.6,-1.2 -1.2,-1.2 -1,0 -1.6,0.6 -1.6,1.2 0,0.8 0.6,1.4 1.6,1.4 0.6,0 1.2,-0.6 1.2,-1.4 z" /><path
                 id="path188"
                 style="fill:none;stroke:#ff0000;stroke-width:0.1;stroke-linecap:butt;stroke-linejoin:miter;stroke-miterlimit:10;stroke-dasharray:none;stroke-opacity:1"
                 d="m 154.1,730 0,0 c 0,-0.6 -0.6,-1.2 -1.2,-1.2 -1,0 -1.6,0.6 -1.6,1.2 0,0.8 0.6,1.4 1.6,1.4 0.6,0 1.2,-0.6 1.2,-1.4 z" /><path
                 id="path190"
                 style="fill:#ff0000;fill-opacity:1;fill-rule:evenodd;stroke:none"
                 d="m 142.6,717.2 0,0 c 0,-0.4 -0.7,-0.7 -1,-0.7 -0.6,0 -0.9,0.3 -0.9,0.7 0,0.4 0.3,0.7 0.9,0.7 0.3,0 1,-0.3 1,-0.7 z" /><path
                 id="path192"
                 style="fill:none;stroke:#ff0000;stroke-width:0.1;stroke-linecap:butt;stroke-linejoin:miter;stroke-miterlimit:10;stroke-dasharray:none;stroke-opacity:1"
                 d="m 142.6,717.2 0,0 c 0,-0.4 -0.7,-0.7 -1,-0.7 -0.6,0 -0.9,0.3 -0.9,0.7 0,0.4 0.3,0.7 0.9,0.7 0.3,0 1,-0.3 1,-0.7 z" /><path
                 id="path194"
                 style="fill:#ff0000;fill-opacity:1;fill-rule:evenodd;stroke:none"
                 d="m 136.9,716.1 0,0 c 0,-0.4 -0.3,-0.8 -0.9,-0.8 -0.3,0 -0.6,0.4 -0.6,0.8 0,0.4 0.3,0.7 0.6,0.7 0.6,0 0.9,-0.3 0.9,-0.7 z" /><path
                 id="path196"
                 style="fill:none;stroke:#ff0000;stroke-width:0.1;stroke-linecap:butt;stroke-linejoin:miter;stroke-miterlimit:10;stroke-dasharray:none;stroke-opacity:1"
                 d="m 136.9,716.1 0,0 c 0,-0.4 -0.3,-0.8 -0.9,-0.8 -0.3,0 -0.6,0.4 -0.6,0.8 0,0.4 0.3,0.7 0.6,0.7 0.6,0 0.9,-0.3 0.9,-0.7 z" /><path
                 id="path198"
                 style="fill:#ff0000;fill-opacity:1;fill-rule:evenodd;stroke:none"
                 d="m 144.1,704.1 0,0 c 0,-0.4 -0.3,-0.8 -0.6,-0.8 -0.6,0 -0.9,0.4 -0.9,0.8 0,0.4 0.3,0.8 0.9,0.8 0.3,0 0.6,-0.4 0.6,-0.8 z" /><path
                 id="path200"
                 style="fill:none;stroke:#ff0000;stroke-width:0.1;stroke-linecap:butt;stroke-linejoin:miter;stroke-miterlimit:10;stroke-dasharray:none;stroke-opacity:1"
                 d="m 144.1,704.1 0,0 c 0,-0.4 -0.3,-0.8 -0.6,-0.8 -0.6,0 -0.9,0.4 -0.9,0.8 0,0.4 0.3,0.8 0.9,0.8 0.3,0 0.6,-0.4 0.6,-0.8 z" /><path
                 id="path202"
                 style="fill:#ff0000;fill-opacity:1;fill-rule:evenodd;stroke:none"
                 d="m 152.9,698.3 0,0 c 0,-0.6 -0.6,-0.9 -1.3,-0.9 -0.6,0 -0.9,0.3 -0.9,0.9 0,0.6 0.3,1 0.9,1 0.7,0 1.3,-0.4 1.3,-1 z" /><path
                 id="path204"
                 style="fill:none;stroke:#ff0000;stroke-width:0.1;stroke-linecap:butt;stroke-linejoin:miter;stroke-miterlimit:10;stroke-dasharray:none;stroke-opacity:1"
                 d="m 152.9,698.3 0,0 c 0,-0.6 -0.6,-0.9 -1.3,-0.9 -0.6,0 -0.9,0.3 -0.9,0.9 0,0.6 0.3,1 0.9,1 0.7,0 1.3,-0.4 1.3,-1 z" /><path
                 id="path206"
                 style="fill:#ff0000;fill-opacity:1;fill-rule:evenodd;stroke:none"
                 d="m 172.2,703.7 0,0 c 0,-0.6 -0.6,-1.2 -1.2,-1.2 -0.7,0 -1.3,0.6 -1.3,1.2 0,0.4 0.6,1 1.3,1 0.6,0 1.2,-0.6 1.2,-1 z" /><path
                 id="path208"
                 style="fill:none;stroke:#ff0000;stroke-width:0.1;stroke-linecap:butt;stroke-linejoin:miter;stroke-miterlimit:10;stroke-dasharray:none;stroke-opacity:1"
                 d="m 172.2,703.7 0,0 c 0,-0.6 -0.6,-1.2 -1.2,-1.2 -0.7,0 -1.3,0.6 -1.3,1.2 0,0.4 0.6,1 1.3,1 0.6,0 1.2,-0.6 1.2,-1 z" /><path
                 id="path210"
                 style="fill:#ff0000;fill-opacity:1;fill-rule:evenodd;stroke:none"
                 d="m 181.9,695.3 0,0 c 0,-0.5 -0.3,-0.9 -0.9,-0.9 -0.7,0 -1.3,0.4 -1.3,0.9 0,0.7 0.6,1.1 1.3,1.1 0.6,0 0.9,-0.4 0.9,-1.1 z" /><path
                 id="path212"
                 style="fill:none;stroke:#ff0000;stroke-width:0.1;stroke-linecap:butt;stroke-linejoin:miter;stroke-miterlimit:10;stroke-dasharray:none;stroke-opacity:1"
                 d="m 181.9,695.3 0,0 c 0,-0.5 -0.3,-0.9 -0.9,-0.9 -0.7,0 -1.3,0.4 -1.3,0.9 0,0.7 0.6,1.1 1.3,1.1 0.6,0 0.9,-0.4 0.9,-1.1 z" /><path
                 id="path214"
                 style="fill:#ff0000;fill-opacity:1;fill-rule:evenodd;stroke:none"
                 d="m 166.9,676 0,0 c 0,-0.4 -0.6,-0.9 -1.2,-0.9 -0.7,0 -1,0.5 -1,0.9 0,0.6 0.3,1 1,1 0.6,0 1.2,-0.4 1.2,-1 z" /><path
                 id="path216"
                 style="fill:none;stroke:#ff0000;stroke-width:0.1;stroke-linecap:butt;stroke-linejoin:miter;stroke-miterlimit:10;stroke-dasharray:none;stroke-opacity:1"
                 d="m 166.9,676 0,0 c 0,-0.4 -0.6,-0.9 -1.2,-0.9 -0.7,0 -1,0.5 -1,0.9 0,0.6 0.3,1 1,1 0.6,0 1.2,-0.4 1.2,-1 z" /><path
                 id="path218"
                 style="fill:#ff0000;fill-opacity:1;fill-rule:evenodd;stroke:none"
                 d="m 175.7,678.6 0,0 c 0,-0.4 -0.7,-1 -1.3,-1 -0.6,0 -0.9,0.6 -0.9,1 0,0.6 0.3,1.2 0.9,1.2 0.6,0 1.3,-0.6 1.3,-1.2 z" /><path
                 id="path220"
                 style="fill:none;stroke:#ff0000;stroke-width:0.1;stroke-linecap:butt;stroke-linejoin:miter;stroke-miterlimit:10;stroke-dasharray:none;stroke-opacity:1"
                 d="m 175.7,678.6 0,0 c 0,-0.4 -0.7,-1 -1.3,-1 -0.6,0 -0.9,0.6 -0.9,1 0,0.6 0.3,1.2 0.9,1.2 0.6,0 1.3,-0.6 1.3,-1.2 z" /><path
                 id="path222"
                 style="fill:#ff0000;fill-opacity:1;fill-rule:evenodd;stroke:none"
                 d="m 206.2,683.4 0,0 c 0,-0.6 -0.3,-0.8 -0.6,-0.8 -0.6,0 -0.9,0.2 -0.9,0.8 0,0.4 0.3,0.8 0.9,0.8 0.3,0 0.6,-0.4 0.6,-0.8 z" /><path
                 id="path224"
                 style="fill:none;stroke:#ff0000;stroke-width:0.1;stroke-linecap:butt;stroke-linejoin:miter;stroke-miterlimit:10;stroke-dasharray:none;stroke-opacity:1"
                 d="m 206.2,683.4 0,0 c 0,-0.6 -0.3,-0.8 -0.6,-0.8 -0.6,0 -0.9,0.2 -0.9,0.8 0,0.4 0.3,0.8 0.9,0.8 0.3,0 0.6,-0.4 0.6,-0.8 z" /><path
                 id="path226"
                 style="fill:#ff0000;fill-opacity:1;fill-rule:evenodd;stroke:none"
                 d="m 212.5,685.8 0,0 c 0,-0.4 -0.3,-0.8 -1,-0.8 -0.2,0 -0.9,0.4 -0.9,0.8 0,0.4 0.7,0.8 0.9,0.8 0.7,0 1,-0.4 1,-0.8 z" /><path
                 id="path228"
                 style="fill:none;stroke:#ff0000;stroke-width:0.1;stroke-linecap:butt;stroke-linejoin:miter;stroke-miterlimit:10;stroke-dasharray:none;stroke-opacity:1"
                 d="m 212.5,685.8 0,0 c 0,-0.4 -0.3,-0.8 -1,-0.8 -0.2,0 -0.9,0.4 -0.9,0.8 0,0.4 0.7,0.8 0.9,0.8 0.7,0 1,-0.4 1,-0.8 z" /><path
                 id="path230"
                 style="fill:#ff0000;fill-opacity:1;fill-rule:evenodd;stroke:none"
                 d="m 216.9,696.5 0,0 c 0,-0.4 -0.3,-0.8 -1,-0.8 -0.3,0 -0.9,0.4 -0.9,0.8 0,0.5 0.6,0.9 0.9,0.9 0.7,0 1,-0.4 1,-0.9 z" /><path
                 id="path232"
                 style="fill:none;stroke:#ff0000;stroke-width:0.1;stroke-linecap:butt;stroke-linejoin:miter;stroke-miterlimit:10;stroke-dasharray:none;stroke-opacity:1"
                 d="m 216.9,696.5 0,0 c 0,-0.4 -0.3,-0.8 -1,-0.8 -0.3,0 -0.9,0.4 -0.9,0.8 0,0.5 0.6,0.9 0.9,0.9 0.7,0 1,-0.4 1,-0.9 z" /><path
                 id="path234"
                 style="fill:#ff0000;fill-opacity:1;fill-rule:evenodd;stroke:none"
                 d="m 209.7,713.5 0,0 c 0,-0.4 -0.6,-0.8 -1,-0.8 -0.6,0 -0.9,0.4 -0.9,0.8 0,0.4 0.3,0.8 0.9,0.8 0.4,0 1,-0.4 1,-0.8 z" /><path
                 id="path236"
                 style="fill:none;stroke:#ff0000;stroke-width:0.1;stroke-linecap:butt;stroke-linejoin:miter;stroke-miterlimit:10;stroke-dasharray:none;stroke-opacity:1"
                 d="m 209.7,713.5 0,0 c 0,-0.4 -0.6,-0.8 -1,-0.8 -0.6,0 -0.9,0.4 -0.9,0.8 0,0.4 0.3,0.8 0.9,0.8 0.4,0 1,-0.4 1,-0.8 z" /><path
                 id="path238"
                 style="fill:#4d4d4d;fill-opacity:1;fill-rule:evenodd;stroke:none"
                 d="m 280.2,673.7 0,0 c -14,0 -21.8,6.1 -22.1,14.1 0,6.2 3.4,12.3 9.3,16.3 5,3.2 11.9,5 19.7,5.2 14.3,0 21.8,-6 22.1,-14.1 0,-6.2 -3.1,-12.4 -9,-16.4 -5,-3.2 -11.9,-4.9 -20,-5.1 z m 1.6,6.1 0,0 c 9,0.2 15.3,8.6 15,15 0,4.3 -2.5,8.3 -11,8.3 -9.6,0 -15.9,-8.3 -15.6,-14.9 0,-4.8 3.8,-8.4 11.3,-8.4 l 0.3,0 z" /><path
                 id="path240"
                 style="fill:#4d4d4d;fill-opacity:1;fill-rule:evenodd;stroke:none"
                 d="m 321.1,708.5 0,0 c 3.7,0.6 9,1 14.4,1 5,0.2 10.3,-0.2 14.3,-1.6 3.5,-1.4 5.9,-3.4 6.3,-6.6 0,-5.2 -5,-8.3 -11.9,-9.9 0,-0.2 0,-0.2 0,-0.2 3.1,-0.8 4.7,-3 5.3,-6.2 0.9,-3.8 1.6,-8.4 2.5,-9.8 -11.8,-0.1 -11.8,-0.1 -11.8,-0.1 -0.4,0.9 -1.3,3.9 -1.9,8.1 -0.7,4.2 -2.8,5.4 -7.5,5.2 -3.4,0 -3.4,0 -3.4,0 -3.5,-13.5 -3.5,-13.5 -3.5,-13.5 -11.5,-0.2 -11.5,-0.2 -11.5,-0.2 l 8.7,33.8 z m 7.8,-14.5 0,0 c 4.7,0 4.7,0 4.7,0 6.2,0.2 10.6,2.5 10.3,5.9 0,2.8 -3.7,4 -8.1,3.8 -2.2,0 -3.8,0 -4.7,-0.2 l -2.2,-9.5 z" /><path
                 id="path242"
                 style="fill:#4d4d4d;fill-opacity:1;fill-rule:evenodd;stroke:none"
                 d="m 378.5,710.3 -8.4,-34.7 -11.2,-0.1 8.1,34.6 11.5,0.2 z" /><path
                 id="path244"
                 style="fill:#4d4d4d;fill-opacity:1;fill-rule:evenodd;stroke:none"
                 d="m 405.1,676 0,0 c -14.1,-0.4 -22.5,5.6 -23.1,13.8 -0.3,6.2 2.8,12.3 8.7,16.3 4.7,3.4 11.6,5.4 19.4,5.6 14,0.6 22.1,-5.4 22.7,-13.6 0.4,-6.1 -2.5,-12.3 -8.1,-16.3 -5,-3.4 -11.5,-5.4 -19.6,-5.8 z m 0.9,6.2 0,0 c 9.4,0.4 15,9 14.7,15.3 -0.7,4.4 -3.1,8.4 -11.6,8.2 -9.6,-0.4 -15.3,-8.7 -14.9,-15.3 0.3,-4.8 4,-8.4 11.8,-8.2 z" /><path
                 id="path246"
                 style="fill:#4d4d4d;fill-opacity:1;fill-rule:evenodd;stroke:none"
                 d="m 437.2,677.6 0,0 c 5.6,34.9 5.6,34.9 5.6,34.9 13.5,0.6 13.5,0.6 13.5,0.6 8.7,-12.6 8.7,-12.6 8.7,-12.6 2.8,-4.4 4.7,-7.7 6.5,-11.5 0.3,0 0.3,0 0.3,0 -0.3,3.6 0,7.4 0.7,12.5 2.2,12.6 2.2,12.6 2.2,12.6 10.6,0.6 10.6,0.6 10.6,0.6 -5.6,-34.9 -5.6,-34.9 -5.6,-34.9 -11.9,-0.6 -11.9,-0.6 -11.9,-0.6 -9.3,13.4 -9.3,13.4 -9.3,13.4 -2.9,4.5 -4.8,7.5 -6.6,11.7 -0.3,-0.2 -0.3,-0.2 -0.3,-0.2 -0.3,-3.4 -1,-8.1 -1.9,-13.7 -1.9,-12.2 -1.9,-12.2 -1.9,-12.2 l -10.6,-0.6 z" /><path
                 id="path248"
                 style="fill:#ff0000;fill-opacity:1;fill-rule:evenodd;stroke:none"
                 d="m 382.9,720.8 0,0 c 0,-2.6 -3.7,-4.7 -8.1,-4.7 -4.7,0 -8.1,2.1 -8.1,4.7 0,2.8 3.4,5 8.1,5 4.4,0 8.1,-2.2 8.1,-5 z" /><path
                 id="path250"
                 style="fill:#000000;fill-opacity:1;fill-rule:evenodd;stroke:none"
                 d="m 165,653.4 -73.6,0 73.6,0 z" /><g
                 id="g252"><path
                   id="path254"
                   style="fill:none;stroke:#4d4d4d;stroke-width:5.0040102;stroke-linecap:butt;stroke-linejoin:round;stroke-miterlimit:10;stroke-dasharray:none;stroke-opacity:1"
                   d="m 165,653.4 -73.6,0" /></g><g
                 id="g256"><path
                   id="path258"
                   style="fill:none;stroke:#4d4d4d;stroke-width:5.0040102;stroke-linecap:butt;stroke-linejoin:round;stroke-miterlimit:10;stroke-dasharray:none;stroke-opacity:1"
                   d="m 162.2,653.2 0,0 c 83.4,6.5 50.9,67.8 137.4,67.8" /></g><g
                 id="g260"><path
                   id="path262"
                   style="fill:none;stroke:#4d4d4d;stroke-width:5.0040102;stroke-linecap:butt;stroke-linejoin:round;stroke-miterlimit:10;stroke-dasharray:none;stroke-opacity:1"
                   d="m 361.4,721 -60,0" /></g><path
                 id="path264"
                 style="fill:#4d4d4d;fill-opacity:1;fill-rule:evenodd;stroke:none"
                 d="m 97,653.4 -37.5,13.5 0,-25.5 37.5,12 z" /><path
                 id="path266"
                 style="fill:none;stroke:#4d4d4d;stroke-width:0.1;stroke-linecap:butt;stroke-linejoin:miter;stroke-miterlimit:10;stroke-dasharray:none;stroke-opacity:1"
                 d="m 97,653.4 -37.5,13.5 0,-25.5 37.5,12 z" /><g
                 id="g268"><path
                   id="path270"
                   style="fill:none;stroke:#4d4d4d;stroke-width:5.0040102;stroke-linecap:butt;stroke-linejoin:round;stroke-miterlimit:10;stroke-dasharray:none;stroke-opacity:1"
                   d="m 97,653.4 -37.5,13.5 0,-25.5 37.5,12 z" /></g><path
                 id="path272"
                 style="fill:#ff0000;fill-opacity:1;fill-rule:evenodd;stroke:none"
                 d="m 193.5,658.9 0,0 c 0,-0.6 -0.7,-1.2 -1.3,-1.2 -0.6,0 -1.3,0.6 -1.3,1.2 0,0.6 0.7,1.2 1.3,1.2 0.6,0 1.3,-0.6 1.3,-1.2 z" /><path
                 id="path274"
                 style="fill:none;stroke:#ff0000;stroke-width:0.1;stroke-linecap:butt;stroke-linejoin:miter;stroke-miterlimit:10;stroke-dasharray:none;stroke-opacity:1"
                 d="m 193.5,658.9 0,0 c 0,-0.6 -0.7,-1.2 -1.3,-1.2 -0.6,0 -1.3,0.6 -1.3,1.2 0,0.6 0.7,1.2 1.3,1.2 0.6,0 1.3,-0.6 1.3,-1.2 z" /><path
                 id="path276"
                 style="fill:#ff0000;fill-opacity:1;fill-rule:evenodd;stroke:none"
                 d="m 160,653.4 0,0 c 0,-0.8 -0.6,-1.2 -1.2,-1.2 -0.9,0 -1.6,0.4 -1.6,1.2 0,0.6 0.7,1.2 1.6,1.2 0.6,0 1.2,-0.6 1.2,-1.2 z" /><path
                 id="path278"
                 style="fill:none;stroke:#ff0000;stroke-width:0.1;stroke-linecap:butt;stroke-linejoin:miter;stroke-miterlimit:10;stroke-dasharray:none;stroke-opacity:1"
                 d="m 160,653.4 0,0 c 0,-0.8 -0.6,-1.2 -1.2,-1.2 -0.9,0 -1.6,0.4 -1.6,1.2 0,0.6 0.7,1.2 1.6,1.2 0.6,0 1.2,-0.6 1.2,-1.2 z" /></g></g><g
             id="g280"><g
               id="g282" /><g
               id="g284"><g
                 style="opacity:0.5"
                 id="g286"
                 clip-path="url(#clipPath28)"><g
                   id="g288" /></g></g></g></g></g></g></g></svg>